<svg xmlns="http://www.w3.org/2000/svg">
  <symbol id="steam" viewBox="0 0 31 31">
    <path fill-rule="evenodd" clip-rule="evenodd" d="M15.7746 30.5089C24.0936 30.5089 30.8375 23.7932 30.8375 15.5089C30.8375 7.22461 24.0936 0.508881 15.7746 0.508881C7.45558 0.508881 0.71167 7.22461 0.71167 15.5089C0.71167 17.0369 0.941106 18.5116 1.36754 19.9005C1.47636 19.9201 1.6523 19.9646 1.90866 20.0395L1.50834 13.7669C1.50834 13.6519 1.7031 13.5966 1.88153 13.546C1.97946 13.5182 2.07247 13.4918 2.12567 13.4577C2.27094 13.3662 5.26258 14.454 5.42239 14.5262L9.248 16.2495C10.2359 15.6285 11.4175 15.3782 12.5797 15.5467L16.0566 11.3252C16.1002 7.95572 18.8604 5.24088 22.2551 5.23606C25.4269 5.26976 28.0564 7.67653 28.3567 10.8101C28.6763 14.1989 26.1775 17.2025 22.7684 17.525L16.9767 21.6406C16.6232 23.4457 15.3254 24.9235 13.5724 25.5107C10.8848 26.4157 7.96472 24.9812 7.05917 22.3049L5.04467 21.6406C4.89531 21.5934 2.15386 20.4576 1.41129 20.0406C3.34051 26.1099 9.04168 30.5089 15.7746 30.5089ZM25.3546 11.3973C25.3546 13.0987 23.967 14.478 22.2553 14.478C20.5436 14.478 19.156 13.0987 19.156 11.3973C19.156 9.69591 20.5436 8.31664 22.2553 8.31664C23.967 8.31664 25.3546 9.69591 25.3546 11.3973ZM24.3236 11.3973C24.3236 12.5325 23.3978 13.4527 22.2557 13.4527C21.1137 13.4527 20.1879 12.5325 20.1879 11.3973C20.1879 10.2622 21.1137 9.34195 22.2557 9.34195C23.3978 9.34195 24.3236 10.2622 24.3236 11.3973ZM10.5804 23.412C10.9969 23.6142 11.4569 23.7201 11.9218 23.7201C12.2753 23.7201 12.6191 23.6623 12.9581 23.5516C13.7377 23.282 14.3721 22.7189 14.7304 21.9824C15.4761 20.4469 14.8272 18.6081 13.2873 17.8668C13.0259 17.7417 12.7208 17.8476 12.5949 18.1027C12.469 18.3626 12.5755 18.6659 12.8322 18.791C12.8661 18.8055 12.9 18.8199 12.9338 18.8392C13.9508 19.359 14.343 20.5961 13.82 21.6069C13.297 22.6178 12.0477 23.0077 11.0356 22.4878C10.7741 22.3627 10.469 22.4686 10.3431 22.7237C10.2172 22.9836 10.3238 23.2869 10.5804 23.412Z"/>
  </symbol>

  <symbol id="xbox" viewBox="0 0 31 31">
    <path d="M10.5514 3.15842C12.1356 3.77963 13.667 4.6001 15.1104 5.60225C15.2747 5.7136 15.4625 5.77221 15.6502 5.77221C15.838 5.77221 16.0257 5.7136 16.19 5.60225C17.6334 4.6001 19.1648 3.77377 20.7491 3.15256C21.107 3.0119 21.3476 2.66027 21.3417 2.27348C21.3417 1.88668 21.1011 1.54091 20.7373 1.40612C17.5689 0.204714 13.7315 0.204714 10.569 1.40612C10.211 1.54091 9.9646 1.89254 9.9646 2.27348C9.9646 2.65441 10.1876 3.01776 10.5514 3.15842Z"/>
    <path d="M24.1587 3.16374C23.8594 2.95862 23.478 2.94104 23.1553 3.12271C21.4009 4.13072 19.7052 5.28524 18.1034 6.55698C17.8922 6.72693 17.7631 6.97893 17.7513 7.24852C17.7396 7.5181 17.8452 7.78183 18.0388 7.96936C21.3599 11.1282 25.96 20.8156 27.0162 25.2696C24.7278 21.4017 19.6231 12.3003 16.2845 9.18835C15.9265 8.8543 15.3633 8.8543 15.0053 9.18835C11.6608 12.3003 6.5737 21.4075 4.28536 25.2813C5.34152 20.8273 9.92992 11.1282 13.2509 7.96936C13.4504 7.78183 13.5561 7.5181 13.5443 7.24852C13.5326 6.97893 13.4035 6.72693 13.1923 6.55698C11.5904 5.28524 9.88885 4.13072 8.14033 3.12271C7.82935 2.94104 7.43622 2.95862 7.13698 3.16374C3.05905 5.97093 0.624023 10.5832 0.624023 15.506C0.624023 19.1043 1.92075 22.5738 4.28536 25.2813C7.11351 28.5984 11.2501 30.5089 15.6449 30.5089C20.0397 30.5089 24.1822 28.6042 27.0162 25.2755C29.369 22.5796 30.6658 19.1102 30.6658 15.506C30.6658 10.5832 28.2307 5.97093 24.1587 3.16374Z"/>
  </symbol>

  <symbol id="twitter" viewBox="0 0 19 15">
    <path d="M18.3981 2.41449C17.7231 2.70013 17.0072 2.88765 16.2741 2.97084C17.0365 2.53297 17.623 1.84099 17.899 1.01526C17.1731 1.42694 16.3789 1.71699 15.5508 1.87286C14.8519 1.15947 13.8744 0.755389 12.8519 0.757085C10.8105 0.757085 9.15361 2.33909 9.15361 4.29061C9.15361 4.5679 9.18627 4.83816 9.25021 5.09623C6.17639 4.94862 3.45216 3.54236 1.62787 1.404C1.30934 1.92529 1.12764 2.53297 1.12764 3.18076C1.12764 4.40623 1.78024 5.48805 2.77231 6.12188C2.18494 6.10468 1.61046 5.95309 1.09706 5.67983V5.7249C1.09706 7.43659 2.37189 8.86495 4.06278 9.19027C3.5182 9.3312 2.94722 9.35187 2.39305 9.25072C2.86384 10.6549 4.22998 11.6764 5.8475 11.7061C4.5821 12.6524 2.98781 13.2184 1.25483 13.2184C0.960153 13.2181 0.66574 13.2015 0.373047 13.1689C2.00943 14.1713 3.95365 14.7571 6.04185 14.7571C12.8438 14.7571 16.5627 9.37118 16.5627 4.70056C16.5627 4.54779 16.5627 4.39502 16.5513 4.24335C17.2749 3.74295 17.8998 3.12372 18.3969 2.41449H18.3981Z"/>
  </symbol>

  <symbol id="twitch" viewBox="0 0 24 24">
    <path d="m.975 4.175v16.694h5.749v3.131h3.139l3.134-3.132h4.705l6.274-6.258v-14.61h-21.434zm3.658-2.09h17.252v11.479l-3.66 3.652h-5.751l-3.134 3.127v-3.127h-4.707z" fill="#000000" style="fill: rgb(255, 255, 255);"></path><path d="m10.385 6.262h2.09v6.26h-2.09z" fill="#000000" style="fill: rgb(255, 255, 255);"></path><path d="m16.133 6.262h2.091v6.26h-2.091z" fill="#000000" style="fill: rgb(255, 255, 255);"></path>
  </symbol>

  <symbol id="youtube" viewBox="0 0 461.001 461.001">
    <path style="fill:#F61C0D;" d="M365.257,67.393H95.744C42.866,67.393,0,110.259,0,163.137v134.728 c0,52.878,42.866,95.744,95.744,95.744h269.513c52.878,0,95.744-42.866,95.744-95.744V163.137 C461.001,110.259,418.135,67.393,365.257,67.393z M300.506,237.056l-126.06,60.123c-3.359,1.602-7.239-0.847-7.239-4.568V168.607 c0-3.774,3.982-6.22,7.348-4.514l126.06,63.881C304.363,229.873,304.298,235.248,300.506,237.056z"></path>
  </symbol>

  <symbol id="facebook" viewBox="0 0 96.124 96.123">
    <path d="M72.089,0.02L59.624,0C45.62,0,36.57,9.285,36.57,23.656v10.907H24.037c-1.083,0-1.96,0.878-1.96,1.961v15.803 c0,1.083,0.878,1.96,1.96,1.96h12.533v39.876c0,1.083,0.877,1.96,1.96,1.96h16.352c1.083,0,1.96-0.878,1.96-1.96V54.287h14.654 c1.083,0,1.96-0.877,1.96-1.96l0.006-15.803c0-0.52-0.207-1.018-0.574-1.386c-0.367-0.368-0.867-0.575-1.387-0.575H56.842v-9.246 c0-4.444,1.059-6.7,6.848-6.7l8.397-0.003c1.082,0,1.959-0.878,1.959-1.96V1.98C74.046,0.899,73.17,0.022,72.089,0.02z"></path>
  </symbol>
  
  <symbol id="arrow" viewBox="0 0 23 11">
    <path d="M21.5786 1.83362H1.32422L11.338 10.0027L21.5786 1.83362Z" stroke-width="2" stroke-linecap="round" stroke-linejoin="round"/>
  </symbol>
</svg>
